<svg width="35" height="35" viewBox="0 0 35 35" fill="none" xmlns="http://www.w3.org/2000/svg">
<rect x="2.16003" y="1.67017" width="31.2848" height="31.2848" rx="11.7017" fill="#98EE76"/>
<path d="M12.987 25.9848C12.5504 25.6446 12.2293 25.2634 11.9965 24.8679C10.844 22.9105 11.6821 20.0991 10.2373 18.3463C9.93214 17.9761 9.34646 17.526 8.67827 17.0668C7.30012 16.1198 5.65254 14.4721 6.74611 13.2071C7.97469 11.7859 9.97285 13.5351 10.834 15.2047L11.0522 15.6278C11.4814 16.4597 12.0164 17.2411 12.6755 17.9058C13.2314 18.4664 13.8125 18.9377 14.2585 18.7655C15.1652 18.4155 15.0273 14.3953 14.918 13.6656C14.8862 13.4532 14.8822 12.9885 14.8709 12.4245C14.8304 10.3973 14.6534 7.34586 16.6732 7.52219C16.6919 7.52382 16.7105 7.52571 16.7289 7.52785C18.6765 7.75381 18.3797 10.4892 17.7766 12.3547C17.4326 13.419 17.2204 14.5233 17.1175 15.637C16.9658 17.2788 16.8375 19.1242 17.4969 19.3959C18.6328 19.864 20.6294 16.8615 21.3539 16.0059C21.6135 15.6994 21.9452 15.0674 22.2795 14.3617C23.0359 12.7647 24.5945 10.824 26.0159 11.8738C27.7423 13.149 25.5471 15.6882 23.9217 17.0899L20.7688 19.809C20.1469 20.4004 19.0113 21.6084 19.651 22.7483C20.4506 24.1733 22.1157 23.8145 22.8167 23.9046C23.0158 23.9302 23.3551 23.8919 23.7542 23.8172C25.5209 23.4864 27.8567 23.4951 27.8656 25.2924C27.8762 27.4599 24.7145 27.248 22.7446 26.3438C22.6634 26.3065 22.5893 26.2732 22.5241 26.245C21.0484 25.6052 19.9521 25.8666 19.3061 25.9524C17.9612 26.1311 16.6578 26.6697 15.3012 26.684C14.5196 26.6923 13.6949 26.5362 12.987 25.9848Z" fill="#09212A"/>
</svg>
