<svg width="300" height="300" viewBox="0 0 300 300" fill="none" xmlns="http://www.w3.org/2000/svg">
  <circle cx="150" cy="150" r="120" fill="#4ADE80" opacity="0.1"/>
  <path d="M180 140c0 16.6-13.4 30-30 30s-30-13.4-30-30 13.4-30 30-30 30 13.4 30 30z" fill="#4ADE80"/>
  <path d="M165 135c0 8.3-6.7 15-15 15s-15-6.7-15-15 6.7-15 15-15 15 6.7 15 15z" fill="white"/>
  <path d="M155 132c0 2.8-2.2 5-5 5s-5-2.2-5-5 2.2-5 5-5 5 2.2 5 5z" fill="black"/>
  <path d="M140 180c30 10 50-10 50-10s-20-30-50-20c-30 10-30 20-30 20s0 0 30 10z" fill="#2E8B57"/>
  <path d="M110 160l20 20M190 160l-20 20" stroke="#4ADE80" stroke-width="4"/>
  <rect x="120" y="200" width="60" height="30" rx="15" fill="#4ADE80"/>
</svg>