<svg width="117" height="43" viewBox="0 0 117 43" fill="none" xmlns="http://www.w3.org/2000/svg">
<rect x="1.43945" y="1.43951" width="38.4855" height="38.4855" rx="14.3951" fill="#98EE76"/>
<path d="M14.7585 31.3506C14.2214 30.9321 13.8264 30.4631 13.5399 29.9766C12.1221 27.5687 13.1532 24.1102 11.3758 21.9539C11.0004 21.4986 10.28 20.9448 9.45798 20.38C7.76262 19.215 5.73581 17.188 7.08109 15.6318C8.59245 13.8835 11.0505 16.0354 12.1099 18.0893L12.3784 18.6097C12.9063 19.6331 13.5645 20.5944 14.3753 21.4121C15.0591 22.1017 15.7739 22.6815 16.3225 22.4697C17.438 22.039 17.2683 17.0935 17.1339 16.1959C17.0947 15.9346 17.0898 15.3629 17.076 14.6691C17.0262 12.1754 16.8084 8.42155 19.2931 8.63846C19.3161 8.64047 19.339 8.64279 19.3616 8.64543C21.7574 8.9234 21.3924 12.2884 20.6505 14.5833C20.2273 15.8925 19.9663 17.251 19.8397 18.6211C19.6531 20.6408 19.4953 22.9109 20.3064 23.2451C21.7038 23.821 24.1599 20.1274 25.0512 19.0749C25.3705 18.6979 25.7786 17.9204 26.1898 17.0522C27.1203 15.0876 29.0376 12.7003 30.7861 13.9917C32.91 15.5604 30.2095 18.684 28.21 20.4084L24.3314 23.7533C23.5663 24.4808 22.1694 25.9669 22.9563 27.3692C23.9399 29.1222 25.9883 28.6808 26.8506 28.7916C27.0955 28.8231 27.5129 28.776 28.004 28.6841C30.1773 28.2771 33.0507 28.2878 33.0616 30.4989C33.0747 33.1652 29.1852 32.9045 26.7619 31.7923C26.662 31.7464 26.5709 31.7054 26.4907 31.6707C24.6753 30.8836 23.3267 31.2052 22.532 31.3108C20.8775 31.5305 19.2742 32.1931 17.6052 32.2108C16.6438 32.2209 15.6293 32.029 14.7585 31.3506Z" fill="#09212A"/>
<path d="M53.0544 20.2162C52.2359 20.2162 51.5217 20.0878 50.9118 19.831C50.318 19.5742 49.8525 19.1489 49.5155 18.555C49.1785 17.9612 49.0099 17.1587 49.0099 16.1476V10.5142H46.9396V8.08275H49.0099L49.347 4.88088H51.8989V8.08275H55.197V10.5142H51.8989V16.1476C51.8989 16.7575 52.0272 17.1828 52.284 17.4235C52.5569 17.6482 53.0063 17.7606 53.6322 17.7606H55.1248V20.2162H53.0544ZM62.8094 20.505C61.6057 20.505 60.5464 20.2483 59.6316 19.7347C58.7167 19.205 58.0025 18.4668 57.489 17.5198C56.9754 16.5729 56.7186 15.4816 56.7186 14.2457C56.7186 12.9618 56.9674 11.8383 57.4649 10.8754C57.9785 9.91239 58.6927 9.15806 59.6075 8.61238C60.5384 8.0667 61.6137 7.79386 62.8334 7.79386C64.0211 7.79386 65.0563 8.05867 65.939 8.58831C66.8217 9.11794 67.5038 9.83214 67.9853 10.7309C68.4668 11.6136 68.7075 12.6087 68.7075 13.7161C68.7075 13.8766 68.7075 14.0532 68.7075 14.2457C68.7075 14.4383 68.6915 14.639 68.6594 14.8476H58.789V12.9939H65.7946C65.7625 12.1112 65.4656 11.421 64.9038 10.9235C64.3421 10.4099 63.6439 10.1531 62.8094 10.1531C62.2155 10.1531 61.6699 10.2896 61.1723 10.5624C60.6748 10.8352 60.2816 11.2445 59.9927 11.7902C59.7038 12.3198 59.5593 12.9939 59.5593 13.8124V14.5106C59.5593 15.2649 59.6958 15.9149 59.9686 16.4606C60.2575 17.0063 60.6427 17.4235 61.1242 17.7124C61.6217 17.9853 62.1754 18.1217 62.7853 18.1217C63.4594 18.1217 64.0131 17.9773 64.4464 17.6884C64.8958 17.3995 65.2248 17.0143 65.4335 16.5328H68.3705C68.1458 17.2871 67.7767 17.9692 67.2631 18.5791C66.7495 19.1729 66.1156 19.6464 65.3612 19.9995C64.6069 20.3365 63.7563 20.505 62.8094 20.505ZM75.7323 20.505C74.657 20.505 73.7181 20.3365 72.9156 19.9995C72.1292 19.6464 71.5033 19.1649 71.0379 18.555C70.5885 17.9291 70.3237 17.2149 70.2434 16.4124H73.1323C73.2126 16.7495 73.357 17.0624 73.5657 17.3513C73.7743 17.6242 74.0552 17.8408 74.4082 18.0013C74.7774 18.1618 75.2107 18.2421 75.7083 18.2421C76.1897 18.2421 76.583 18.1779 76.8879 18.0495C77.1928 17.905 77.4175 17.7205 77.562 17.4958C77.7064 17.2711 77.7786 17.0303 77.7786 16.7735C77.7786 16.3884 77.6743 16.0914 77.4657 15.8828C77.257 15.6742 76.9521 15.5137 76.5509 15.4013C76.1657 15.2729 75.7002 15.1525 75.1545 15.0402C74.5768 14.9279 74.015 14.7914 73.4694 14.6309C72.9397 14.4544 72.4582 14.2377 72.0249 13.9809C71.6076 13.7241 71.2706 13.3951 71.0138 12.9939C70.773 12.5927 70.6527 12.1031 70.6527 11.5254C70.6527 10.8192 70.8372 10.1852 71.2064 9.6235C71.5916 9.06177 72.1372 8.62041 72.8434 8.29942C73.5657 7.96238 74.4243 7.79386 75.4194 7.79386C76.8317 7.79386 77.9552 8.12287 78.7898 8.7809C79.6404 9.42288 80.1379 10.3297 80.2824 11.5013H77.5379C77.4576 11.0519 77.233 10.7068 76.8638 10.4661C76.4947 10.2093 76.0052 10.0809 75.3953 10.0809C74.7694 10.0809 74.2879 10.2013 73.9508 10.442C73.6298 10.6667 73.4694 10.9717 73.4694 11.3568C73.4694 11.5976 73.5657 11.8223 73.7582 12.0309C73.9669 12.2235 74.2638 12.392 74.649 12.5365C75.0342 12.6649 75.5076 12.7933 76.0694 12.9217C76.9681 13.0982 77.7626 13.3069 78.4527 13.5476C79.1428 13.7883 79.6885 14.1414 80.0898 14.6069C80.491 15.0723 80.6916 15.7303 80.6916 16.5809C80.7077 17.3513 80.5071 18.0334 80.0898 18.6273C79.6885 19.2211 79.1188 19.6865 78.3805 20.0236C77.6422 20.3446 76.7595 20.505 75.7323 20.505ZM87.8624 20.2162C87.0438 20.2162 86.3296 20.0878 85.7197 19.831C85.1259 19.5742 84.6605 19.1489 84.3234 18.555C83.9864 17.9612 83.8179 17.1587 83.8179 16.1476V10.5142H81.7475V8.08275H83.8179L84.1549 4.88088H86.7068V8.08275H90.005V10.5142H86.7068V16.1476C86.7068 16.7575 86.8352 17.1828 87.092 17.4235C87.3648 17.6482 87.8142 17.7606 88.4401 17.7606H89.9327V20.2162H87.8624Z" fill="white"/>
<path d="M47.7822 37.2162V25.0827H50.334L50.5748 26.7439C50.96 26.134 51.4655 25.6605 52.0914 25.3235C52.7334 24.9704 53.4637 24.7939 54.2822 24.7939C54.8921 24.7939 55.4378 24.8741 55.9192 25.0346C56.4168 25.1951 56.8501 25.4358 57.2193 25.7568C57.6044 26.0778 57.9174 26.4791 58.1582 26.9605C58.6075 26.2865 59.1933 25.7568 59.9156 25.3716C60.6378 24.9865 61.4242 24.7939 62.2748 24.7939C63.286 24.7939 64.1446 25.0025 64.8508 25.4198C65.557 25.821 66.0946 26.4229 66.4638 27.2254C66.8329 28.0118 67.0175 28.9828 67.0175 30.1383V37.2162H64.1526V30.4272C64.1526 29.4001 63.944 28.6136 63.5267 28.068C63.1094 27.5223 62.4915 27.2494 61.673 27.2494C61.1113 27.2494 60.6137 27.3858 60.1804 27.6587C59.7631 27.9315 59.4341 28.3328 59.1933 28.8624C58.9526 29.376 58.8322 30.0099 58.8322 30.7643V37.2162H55.9674V30.4272C55.9674 29.4001 55.7588 28.6136 55.3415 28.068C54.9242 27.5223 54.2983 27.2494 53.4637 27.2494C52.934 27.2494 52.4526 27.3858 52.0192 27.6587C51.6019 27.9315 51.2729 28.3328 51.0322 28.8624C50.7914 29.376 50.6711 30.0099 50.6711 30.7643V37.2162H47.7822ZM73.6326 37.505C72.6375 37.505 71.811 37.3365 71.153 36.9995C70.4949 36.6624 70.0054 36.2131 69.6844 35.6513C69.3634 35.0896 69.203 34.4797 69.203 33.8217C69.203 33.0513 69.3955 32.3853 69.7807 31.8235C70.182 31.2618 70.7678 30.8285 71.5382 30.5235C72.3085 30.2025 73.2554 30.042 74.3789 30.042H77.4363C77.4363 29.4001 77.3481 28.8704 77.1715 28.4531C76.995 28.0198 76.7221 27.6988 76.353 27.4902C75.9839 27.2815 75.5104 27.1772 74.9326 27.1772C74.2746 27.1772 73.7129 27.3297 73.2474 27.6346C72.782 27.9235 72.4931 28.3729 72.3807 28.9828H69.54C69.6363 28.1161 69.9252 27.3778 70.4067 26.7679C70.8881 26.142 71.5221 25.6605 72.3085 25.3235C73.111 24.9704 73.9857 24.7939 74.9326 24.7939C76.0721 24.7939 77.0431 24.9945 77.8456 25.3957C78.6481 25.7809 79.258 26.3426 79.6752 27.0809C80.1086 27.8031 80.3252 28.6778 80.3252 29.705V37.2162H77.8697L77.5808 35.2661C77.4203 35.5871 77.2116 35.884 76.9549 36.1569C76.7141 36.4297 76.4332 36.6705 76.1123 36.8791C75.7913 37.0717 75.4221 37.2242 75.0048 37.3365C74.6036 37.4489 74.1462 37.505 73.6326 37.505ZM74.2826 35.218C74.748 35.218 75.1573 35.1377 75.5104 34.9773C75.8795 34.8007 76.1925 34.56 76.4493 34.255C76.7221 33.934 76.9308 33.5809 77.0752 33.1958C77.2197 32.8106 77.316 32.4013 77.3641 31.968V31.9198H74.6919C74.1301 31.9198 73.6647 31.9921 73.2956 32.1365C72.9264 32.2649 72.6616 32.4575 72.5011 32.7143C72.3406 32.9711 72.2604 33.268 72.2604 33.605C72.2604 33.9421 72.3406 34.231 72.5011 34.4717C72.6616 34.7124 72.8943 34.897 73.1993 35.0254C73.5042 35.1538 73.8653 35.218 74.2826 35.218ZM88.0343 42.8014C86.8947 42.8014 85.8917 42.6569 85.025 42.368C84.1744 42.0952 83.5083 41.6699 83.0268 41.0921C82.5614 40.5304 82.3287 39.8242 82.3287 38.9736C82.3287 38.476 82.449 37.9865 82.6898 37.505C82.9466 37.0396 83.3237 36.6063 83.8213 36.205C84.3349 35.7878 84.9849 35.4266 85.7713 35.1217L87.0472 36.518C86.2768 36.7908 85.7392 37.1199 85.4342 37.505C85.1293 37.8902 84.9768 38.2834 84.9768 38.6847C84.9768 39.102 85.1052 39.447 85.362 39.7199C85.6349 40.0088 85.996 40.2254 86.4454 40.3699C86.9108 40.5143 87.4324 40.5865 88.0102 40.5865C88.5719 40.5865 89.0614 40.5063 89.4787 40.3458C89.896 40.2014 90.217 39.9927 90.4417 39.7199C90.6824 39.447 90.8028 39.118 90.8028 38.7328C90.8028 38.2513 90.6343 37.8581 90.2972 37.5532C89.9602 37.2643 89.2941 37.0878 88.2991 37.0236C87.4485 36.9594 86.7022 36.8711 86.0602 36.7587C85.4182 36.6303 84.8645 36.4859 84.3991 36.3254C83.9497 36.1649 83.5645 35.9884 83.2435 35.7958C82.9225 35.5871 82.6577 35.3785 82.449 35.1698V34.6161L84.9768 31.968L87.1194 32.6661L84.2787 35.4347L85.025 34.0384C85.1855 34.1507 85.346 34.255 85.5065 34.3513C85.683 34.4476 85.8997 34.5359 86.1565 34.6161C86.4293 34.6803 86.7824 34.7445 87.2157 34.8087C87.6491 34.8729 88.2108 34.9371 88.9009 35.0013C89.9762 35.0816 90.8509 35.2742 91.525 35.5791C92.1991 35.884 92.6966 36.2933 93.0176 36.8069C93.3386 37.3205 93.4991 37.9384 93.4991 38.6606C93.4991 39.3668 93.2985 40.0328 92.8973 40.6588C92.5121 41.2847 91.9182 41.7983 91.1158 42.1995C90.3133 42.6008 89.2861 42.8014 88.0343 42.8014ZM88.0343 33.5809C87.0231 33.5809 86.1484 33.3884 85.4102 33.0032C84.6879 32.6019 84.1342 32.0723 83.749 31.4143C83.3639 30.7402 83.1713 30.0019 83.1713 29.1994C83.1713 28.3809 83.3639 27.6426 83.749 26.9846C84.1342 26.3266 84.6879 25.797 85.4102 25.3957C86.1484 24.9945 87.0231 24.7939 88.0343 24.7939C89.0454 24.7939 89.912 24.9945 90.6343 25.3957C91.3565 25.797 91.9102 26.3266 92.2954 26.9846C92.6806 27.6426 92.8732 28.3809 92.8732 29.1994C92.8732 30.0019 92.6806 30.7402 92.2954 31.4143C91.9102 32.0723 91.3565 32.6019 90.6343 33.0032C89.912 33.3884 89.0454 33.5809 88.0343 33.5809ZM88.0343 31.342C88.7244 31.342 89.2781 31.1575 89.6954 30.7883C90.1127 30.4192 90.3213 29.8896 90.3213 29.1994C90.3213 28.5093 90.1127 27.9877 89.6954 27.6346C89.2781 27.2655 88.7244 27.0809 88.0343 27.0809C87.3441 27.0809 86.7824 27.2655 86.3491 27.6346C85.9157 27.9877 85.6991 28.5093 85.6991 29.1994C85.6991 29.8896 85.9157 30.4192 86.3491 30.7883C86.7824 31.1575 87.3441 31.342 88.0343 31.342ZM90.0324 27.2013L89.4787 25.0827H94.4621V26.8883L90.0324 27.2013ZM96.6519 37.2162V25.0827H99.5408V37.2162H96.6519ZM98.0963 23.1568C97.5667 23.1568 97.1253 22.9963 96.7723 22.6753C96.4352 22.3383 96.2667 21.929 96.2667 21.4475C96.2667 20.95 96.4352 20.5488 96.7723 20.2438C97.1253 19.9228 97.5667 19.7623 98.0963 19.7623C98.626 19.7623 99.0593 19.9228 99.3963 20.2438C99.7494 20.5488 99.926 20.95 99.926 21.4475C99.926 21.929 99.7494 22.3383 99.3963 22.6753C99.0593 22.9963 98.626 23.1568 98.0963 23.1568ZM108.151 37.505C106.964 37.505 105.897 37.2402 104.95 36.7106C104.019 36.1649 103.288 35.4186 102.759 34.4717C102.245 33.5087 101.988 32.4174 101.988 31.1976C101.988 29.9297 102.245 28.8223 102.759 27.8754C103.288 26.9124 104.019 26.1581 104.95 25.6124C105.897 25.0667 106.972 24.7939 108.176 24.7939C109.684 24.7939 110.952 25.1951 111.979 25.9976C113.006 26.784 113.664 27.8673 113.953 29.2476H110.92C110.76 28.6377 110.422 28.1562 109.909 27.8031C109.411 27.45 108.818 27.2735 108.127 27.2735C107.534 27.2735 106.988 27.426 106.49 27.7309C106.009 28.0359 105.624 28.4772 105.335 29.055C105.062 29.6328 104.926 30.3309 104.926 31.1495C104.926 31.7754 105.006 32.3291 105.166 32.8106C105.327 33.2921 105.551 33.7013 105.84 34.0384C106.145 34.3593 106.49 34.6081 106.876 34.7847C107.261 34.9612 107.678 35.0495 108.127 35.0495C108.593 35.0495 109.01 34.9773 109.379 34.8328C109.764 34.6723 110.085 34.4396 110.342 34.1347C110.615 33.8297 110.808 33.4686 110.92 33.0513H113.953C113.664 34.3995 113.006 35.4828 111.979 36.3013C110.952 37.1038 109.676 37.505 108.151 37.505Z" fill="#98EE76"/>
</svg>
